<?xml version="1.0" encoding="UTF-8" standalone="no"?>
<svg
   xmlns:dc="http://purl.org/dc/elements/1.1/"
   xmlns:cc="http://creativecommons.org/ns#"
   xmlns:rdf="http://www.w3.org/1999/02/22-rdf-syntax-ns#"
   xmlns:svg="http://www.w3.org/2000/svg"
   xmlns="http://www.w3.org/2000/svg"
   xmlns:sodipodi="http://sodipodi.sourceforge.net/DTD/sodipodi-0.dtd"
   xmlns:inkscape="http://www.inkscape.org/namespaces/inkscape"
   sodipodi:docname="logo.svg"
   inkscape:version="1.0 (4035a4fb49, 2020-05-01)"
   id="svg8"
   version="1.1"
   viewBox="0 0 189.25401 163.05861"
   height="163.05861mm"
   width="189.25401mm">
  <defs
     id="defs2" />
  <sodipodi:namedview
     inkscape:window-maximized="0"
     inkscape:window-y="1060"
     inkscape:window-x="1912"
     inkscape:window-height="1028"
     inkscape:window-width="1919"
     fit-margin-bottom="0"
     fit-margin-right="0"
     fit-margin-left="0"
     fit-margin-top="0"
     showgrid="false"
     inkscape:document-rotation="0"
     inkscape:current-layer="layer6"
     inkscape:document-units="mm"
     inkscape:cy="318.93061"
     inkscape:cx="246.57508"
     inkscape:zoom="1"
     inkscape:pageshadow="2"
     inkscape:pageopacity="0.0"
     borderopacity="1.0"
     bordercolor="#666666"
     pagecolor="#ffffff"
     id="base" />
  <metadata
     id="metadata5">
    <rdf:RDF>
      <cc:Work
         rdf:about="">
        <dc:format>image/svg+xml</dc:format>
        <dc:type
           rdf:resource="http://purl.org/dc/dcmitype/StillImage" />
        <dc:title></dc:title>
      </cc:Work>
    </rdf:RDF>
  </metadata>
  <g
     transform="translate(-8.9379507,-46.55805)"
     sodipodi:insensitive="true"
     style="display:inline"
     inkscape:label="Neck"
     id="layer6"
     inkscape:groupmode="layer">
    <path
       id="path81"
       d="m 78.309972,121.20673 c 0,0 1.870884,9.75534 1.937702,10.22306 0.06682,0.46772 -2.071338,22.317 -2.071338,22.317 l 27.862844,10.55715 30.46873,-18.04069 -6.34765,-13.69757 1.06908,-14.2321 z"
       style="fill:#ffffff;stroke:#000000;stroke-width:0.264583px;stroke-linecap:butt;stroke-linejoin:miter;stroke-opacity:1" />
  </g>
  <g
     transform="translate(-8.9379507,-46.55805)"
     sodipodi:insensitive="true"
     style="display:inline"
     inkscape:label="Shirt"
     id="layer8"
     inkscape:groupmode="layer">
    <path
       sodipodi:nodetypes="cccccccccccccccccccccc"
       id="path85"
       d="m 100.35268,149.77306 -17.953872,-12.5677 -2.346561,-6.5893 -2.189154,3.18751 -0.188986,3.1183 -10.394347,2.36235 -13.134671,7.74852 -29.151414,13.60714 -6.567336,12.28423 -8.220982,28.20647 -1.1351097,3.88533 0.00119,4.3829 H 198.05953 l 1.4e-4,-41.59782 -10.00707,-12.8213 -43.38629,-17.8437 -10.80437,-2.10474 -2.53235,-4.91108 -0.90475,-1.45709 -0.91271,5.24563 -19.41045,16.27672 z"
       style="fill:#87aade;stroke:#000000;stroke-width:0.264583px;stroke-linecap:butt;stroke-linejoin:miter;stroke-opacity:1" />
    <path
       id="path87"
       d="m 77.674107,136.92187 -1.639473,13.12995 11.740886,20.86901 1.620573,0.13229 6.316927,-10.02109 5.68854,-7.63984 2.41432,-1.30638 6.00274,-0.29766 1.61607,0.52541 8.0682,7.67063 7.22629,8.81656 h 1.16931 l 3.36791,-13.25882 2.57969,-8.00365 2.74505,-5.39089 -2.7292,-7.11614"
       style="fill:none;stroke:#000000;stroke-width:0.264583px;stroke-linecap:butt;stroke-linejoin:miter;stroke-opacity:1" />
    <path
       id="path89"
       d="m 132.68854,203.26614 0.19844,6.21771 32.54375,-0.13229 -0.33073,-6.94531 z"
       style="fill:none;stroke:#000000;stroke-width:0.264583px;stroke-linecap:butt;stroke-linejoin:miter;stroke-opacity:1" />
    <path
       id="path91"
       d="m 44.648437,209.35156 c 0.06615,-0.33073 -0.06615,-15.54427 -0.06615,-15.54427 l 20.042187,-39.75365"
       style="fill:none;stroke:#000000;stroke-width:0.264583px;stroke-linecap:butt;stroke-linejoin:miter;stroke-opacity:1" />
    <path
       id="path93"
       d="m 73.289582,148.49739 -3.96875,7.9375 -3.571874,5.42396 1.918229,-7.60677 4.497916,-8.06979 3.96875,-3.77031 0.06615,2.38125 z"
       style="fill:#000000;stroke:#000000;stroke-width:0.264583px;stroke-linecap:butt;stroke-linejoin:miter;stroke-opacity:1" />
    <path
       id="path95"
       d="m 57.348437,153.1276 4.828646,-1.12448 -0.264584,-1.85208 -3.042708,-1.19063 -1.984375,2.64584 -2.910417,3.24114 -4.101041,6.54844 -2.447396,9.85573 c 0,0 3.96875,-7.87135 4.034896,-8.13594 0.06615,-0.26458 5.886979,-9.98802 5.886979,-9.98802 z"
       style="fill:#000000;stroke:#000000;stroke-width:0.264583px;stroke-linecap:butt;stroke-linejoin:miter;stroke-opacity:1" />
    <path
       id="path97"
       d="m 65.087499,160.00677 -7.14375,13.29531"
       style="fill:none;stroke:#000000;stroke-width:0.264583px;stroke-linecap:butt;stroke-linejoin:miter;stroke-opacity:1" />
    <path
       id="path99"
       d="m 76.729166,140.49375 -6.283854,4.03489 0.529166,-5.02708 5.886979,-1.32292 z"
       style="fill:#000000;stroke:#000000;stroke-width:0.264583px;stroke-linecap:butt;stroke-linejoin:miter;stroke-opacity:1" />
    <path
       id="path101"
       d="m 69.453124,140.62604 -1.058333,4.23333 -4.564063,4.49792 c 0,0 -4.167187,-1.91823 -4.034895,-2.18281 0.132291,-0.26459 9.657291,-6.54844 9.657291,-6.54844 z"
       style="fill:#000000;stroke:#000000;stroke-width:0.264583px;stroke-linecap:butt;stroke-linejoin:miter;stroke-opacity:1" />
    <path
       id="path103"
       d="m 26.800452,164.77834 c 0,0 1.403165,6.82874 1.683798,7.20292 0.280633,0.37417 7.857723,16.32348 7.857723,16.32348 l 7.951269,10.4302"
       style="fill:none;stroke:#000000;stroke-width:0.264583px;stroke-linecap:butt;stroke-linejoin:miter;stroke-opacity:1" />
    <path
       id="path105"
       d="m 33.535643,174.41341 c 0,0 4.536901,10.10279 4.677217,10.33665 0.140317,0.23386 3.695002,7.85772 3.695002,7.85772 l 2.057974,1.96443"
       style="fill:none;stroke:#000000;stroke-width:0.264583px;stroke-linecap:butt;stroke-linejoin:miter;stroke-opacity:1" />
    <path
       id="path107"
       d="m 39.943431,181.66309 c 0.09354,0.37418 2.478924,6.26748 2.478924,6.26748 l 1.356394,2.05797 0.514493,2.75956"
       style="fill:none;stroke:#000000;stroke-width:0.264583px;stroke-linecap:butt;stroke-linejoin:miter;stroke-opacity:1" />
    <path
       id="path109"
       d="M 46.023813,165.29284 43.778749,175.7698"
       style="fill:none;stroke:#000000;stroke-width:0.264583px;stroke-linecap:butt;stroke-linejoin:miter;stroke-opacity:1" />
    <path
       id="path111"
       d="m 19.64431,178.95031 c 0.608038,0.98221 2.619241,7.67063 2.666013,8.09158 0.04677,0.42095 3.414369,8.13836 3.367596,8.41899"
       style="fill:none;stroke:#000000;stroke-width:0.264583px;stroke-linecap:butt;stroke-linejoin:miter;stroke-opacity:1" />
    <path
       id="path115"
       d="m 26.33273,197.42532 c 0.18709,0.37417 3.414369,7.15614 3.414369,7.15614 l 3.835317,4.63044 2.666014,-0.0468 -6.033612,-7.10937 -2.946646,-5.79975 z"
       style="fill:#000000;stroke:#000000;stroke-width:0.264583px;stroke-linecap:butt;stroke-linejoin:miter;stroke-opacity:1" />
    <path
       id="path117"
       d="m 54.041145,198.96666 c -0.03307,0.39688 -3.704166,5.09323 -3.571875,5.15938 0.132292,0.0661 -0.03307,5.15937 -0.03307,5.15937 h 3.042709 l 1.422135,-7.27604 z"
       style="fill:#000000;stroke:#000000;stroke-width:0.264583px;stroke-linecap:butt;stroke-linejoin:miter;stroke-opacity:1" />
    <path
       id="path119"
       d="m 59.597395,179.05677 c 1.653646,-2.97656 4.233333,-6.28386 4.696354,-6.48229 0.463021,-0.19844 4.167188,-2.4474 4.167188,-2.4474 l 7.209895,-14.15521"
       style="fill:none;stroke:#000000;stroke-width:0.264583px;stroke-linecap:butt;stroke-linejoin:miter;stroke-opacity:1" />
    <path
       id="path121"
       d="m 90.738004,187.74348 -7.76418,17.49279"
       style="fill:none;stroke:#000000;stroke-width:0.264583px;stroke-linecap:butt;stroke-linejoin:miter;stroke-opacity:1" />
    <path
       id="path123"
       d="m 13.526823,200.91797 c -0.03307,0.29765 4.597135,6.28385 4.597135,6.28385 l 2.811198,2.14974 -3.671094,0.0661 -3.175,-4.20026 -0.959114,-2.28204 z"
       style="fill:#000000;stroke:#000000;stroke-width:0.264583px;stroke-linecap:butt;stroke-linejoin:miter;stroke-opacity:1" />
    <path
       id="path127"
       d="m 135.86354,139.17083 3.37344,3.24115 0.19843,5.82083 -0.19843,3.50573 1.38906,3.37344 0.46302,11.44323 0.52917,10.91406 -0.33073,9.85573 1.85208,-5.22552 -0.7276,-27.58282 -0.19844,-3.0427 -0.92604,-7.07761 0.66146,-1.98437 -0.92605,-2.31511 -6.48229,-3.77031 z"
       style="fill:#000000;stroke:#000000;stroke-width:0.264583px;stroke-linecap:butt;stroke-linejoin:miter;stroke-opacity:1" />
    <path
       id="path129"
       d="m 133.35,202.00937 -0.13229,-4.23333 4.36562,-0.0661 0.41341,5.35782 -4.59713,0.1819 z"
       style="fill:#000000;stroke:#000000;stroke-width:0.264583px;stroke-linecap:butt;stroke-linejoin:miter;stroke-opacity:1" />
    <path
       id="path131"
       d="m 123.49427,166.48906 0.39687,3.37344 -2.38125,6.54844 2.57969,-6.15157 1.97895,-2.14851 -1.67211,-2.07552 z"
       style="fill:#000000;stroke:#000000;stroke-width:0.264583px;stroke-linecap:butt;stroke-linejoin:miter;stroke-opacity:1" />
    <path
       id="path133"
       d="m 144.71308,147.05169 c 0.0936,1.59026 8.13836,20.95393 8.04481,21.70229 -0.0935,0.74835 4.86431,7.95126 4.86431,7.95126 l 4.58367,12.62849"
       style="fill:none;stroke:#000000;stroke-width:0.264583px;stroke-linecap:butt;stroke-linejoin:miter;stroke-opacity:1" />
    <path
       id="path135"
       d="m 152.38372,151.26119 c 0.65481,1.21607 10.10279,21.98292 10.10279,21.98292 l 3.1805,-1.96444"
       style="fill:none;stroke:#000000;stroke-width:0.264583px;stroke-linecap:butt;stroke-linejoin:miter;stroke-opacity:1" />
    <path
       id="path137"
       d="m 171.38385,184.64609 0.0331,-5.25859 -5.35781,-7.40834 -2.87734,1.2237 4.82864,4.99401 1.55443,4.99401 z"
       style="fill:#000000;stroke:#000000;stroke-width:0.264583px;stroke-linecap:butt;stroke-linejoin:miter;stroke-opacity:1" />
    <path
       id="path139"
       d="m 188.5386,162.29942 -5.94006,10.2431 -3.41437,8.55931 -1.73057,7.90449 -4.20949,10.28988 -2.89988,8.27867"
       style="fill:none;stroke:#000000;stroke-width:0.264583px;stroke-linecap:butt;stroke-linejoin:miter;stroke-opacity:1" />
    <path
       id="path141"
       d="m 169.59588,203.27184 -0.65481,3.08696 -1.44994,2.94665 -2.0604,0.0461 -0.33073,-6.94531 -2.19254,-6.10347 -3.88209,-3.13373 -2.65662,0.63824 -0.29766,-2.01745 3.10886,-0.89297 5.25859,3.30729 2.71198,4.66329 0.26458,3.73723 0.76068,1.91823 0.92604,-1.65364 z"
       style="fill:#000000;stroke:#000000;stroke-width:0.264583px;stroke-linecap:butt;stroke-linejoin:miter;stroke-opacity:1" />
    <path
       id="path143"
       d="m 171.84687,194.96484 1.12448,-4.36562 0.69453,-3.24115 0.92604,3.10885 c 0,0 -0.62838,1.38907 -0.66145,1.52136 -0.0331,0.13229 -0.23151,2.51354 -0.23151,2.51354 l -1.05834,0.19844 z"
       style="fill:#000000;stroke:#000000;stroke-width:0.264583px;stroke-linecap:butt;stroke-linejoin:miter;stroke-opacity:1" />
    <path
       id="path145"
       d="m 146.20979,173.57151 c 0.70159,1.30962 3.88209,11.9269 3.88209,11.9269 l 2.89988,8.04481 1.21607,7.01583"
       style="fill:none;stroke:#000000;stroke-width:0.264583px;stroke-linecap:butt;stroke-linejoin:miter;stroke-opacity:1" />
    <path
       id="path147"
       d="m 171.56031,154.20783 0.23386,4.06918 0.18709,12.48817"
       style="fill:none;stroke:#000000;stroke-width:0.264583px;stroke-linecap:butt;stroke-linejoin:miter;stroke-opacity:1" />
    <path
       id="path149"
       d="m 174.97468,170.57809 -0.42096,-11.55272 3.22729,-3.55469"
       style="fill:none;stroke:#000000;stroke-width:0.264583px;stroke-linecap:butt;stroke-linejoin:miter;stroke-opacity:1" />
    <path
       id="path151"
       d="m 197.00437,178.01487 c 0,0 -13.09621,17.77342 -13.23653,17.96051 -0.14032,0.18709 -7.90449,7.53032 -7.90449,7.53032"
       style="fill:none;stroke:#000000;stroke-width:0.264583px;stroke-linecap:butt;stroke-linejoin:miter;stroke-opacity:1" />
    <path
       id="path153"
       d="m 174.27309,208.83772 c 0,0 2.29184,-4.67721 2.57247,-4.67721 0.28063,0 2.61924,0.14031 2.61924,0.14031 l -2.50815,5.0397 -2.71864,0.0292 z"
       style="fill:#000000;stroke:#000000;stroke-width:0.264583px;stroke-linecap:butt;stroke-linejoin:miter;stroke-opacity:1" />
    <path
       id="path155"
       d="m 197.44531,184.61302 c 0,0 -6.81302,10.84792 -7.0776,10.78177 -0.26459,-0.0661 -2.71198,5.88698 -2.71198,5.88698 l -7.87136,7.47448"
       style="fill:none;stroke:#000000;stroke-width:0.264583px;stroke-linecap:butt;stroke-linejoin:miter;stroke-opacity:1" />
    <path
       id="path157"
       d="m 134.04903,179.04385 c -0.28063,0.65481 -1.87089,9.44798 -1.87089,9.44798 l -1.12253,6.17393"
       style="fill:none;stroke:#000000;stroke-width:0.264583px;stroke-linecap:butt;stroke-linejoin:miter;stroke-opacity:1" />
    <path
       id="path159"
       d="m 136.29409,185.59196 -1.68379,7.57709"
       style="fill:none;stroke:#000000;stroke-width:0.264583px;stroke-linecap:butt;stroke-linejoin:miter;stroke-opacity:1" />
  </g>
  <g
     transform="translate(-8.9379507,-46.55805)"
     style="display:inline"
     sodipodi:insensitive="true"
     inkscape:label="Tie"
     id="layer10"
     inkscape:groupmode="layer">
    <path
       id="path163"
       d="m 101.68269,167.63144 c -0.0702,-0.11693 -4.022406,-4.13933 -4.069179,-4.27965 -0.04677,-0.14031 -1.900491,-2.31976 -1.900491,-2.31976 l 5.68854,-7.63984 2.41432,-1.30638 6.00274,-0.29766 1.61607,0.52541 6.92228,6.5481 -8.32545,5.86991 0.63046,3.47728 4.72942,8.26823 1.5875,6.84609 2.34818,8.69818 1.91823,9.8888 0.79375,5.6224 0.0661,1.85208 -26.623701,0.0331 0.06615,-13.95677 0.595313,-5.85391 2.480468,-6.44922 2.05052,-7.24297 1.48828,-4.56406 z"
       style="fill:#aa8800;stroke:#000000;stroke-width:0.264583px;stroke-linecap:butt;stroke-linejoin:miter;stroke-opacity:1" />
    <path
       id="path165"
       d="m 108.11627,153.06271 c 0,0 4.03379,2.80004 4.13298,2.93498 0.0992,0.13494 2.44672,3.71088 2.44672,3.71088"
       style="fill:none;stroke:#000000;stroke-width:0.267183px;stroke-linecap:butt;stroke-linejoin:miter;stroke-opacity:1" />
    <path
       id="path167"
       d="m 104.4112,153.16068 4.03489,2.41432 4.16719,4.00182 0.13229,2.05052"
       style="fill:none;stroke:#000000;stroke-width:0.264583px;stroke-linecap:butt;stroke-linejoin:miter;stroke-opacity:1" />
    <path
       id="path169"
       d="m 102.29453,154.3513 3.60495,1.65365 3.67109,2.87734 1.25677,1.48828 0.56224,2.05052"
       style="fill:none;stroke:#000000;stroke-width:0.264583px;stroke-linecap:butt;stroke-linejoin:miter;stroke-opacity:1" />
    <path
       id="path171"
       d="m 100.64088,156.07109 c 0.16537,0.0331 5.72162,2.51354 5.72162,2.51354 l 3.07578,2.74506 1.52135,2.11666"
       style="fill:none;stroke:#000000;stroke-width:0.264583px;stroke-linecap:butt;stroke-linejoin:miter;stroke-opacity:1" />
    <path
       id="path173"
       d="m 99.185676,158.65078 6.813024,2.11667 4.03282,3.96412"
       style="fill:none;stroke:#000000;stroke-width:0.264583px;stroke-linecap:butt;stroke-linejoin:miter;stroke-opacity:1" />
    <path
       id="path175"
       d="m 97.829686,160.46979 6.350004,2.61276"
       style="fill:none;stroke:#000000;stroke-width:0.264583px;stroke-linecap:butt;stroke-linejoin:miter;stroke-opacity:1" />
    <path
       id="path177"
       d="m 99.450259,163.64479 c 0.132292,0.0331 3.108851,1.15755 3.108851,1.15755"
       style="fill:none;stroke:#000000;stroke-width:0.264583px;stroke-linecap:butt;stroke-linejoin:miter;stroke-opacity:1" />
    <path
       id="path179"
       d="m 106.99088,163.77708 -2.81119,-0.69453 -1.62058,1.71979 0.69453,0.79375 1.2237,-0.19844 z"
       style="fill:#000000;stroke:#000000;stroke-width:0.264583px;stroke-linecap:butt;stroke-linejoin:miter;stroke-opacity:1" />
    <path
       id="path181"
       d="m 108.71068,165.23229 -2.4474,2.08359 -2.87734,3.30729"
       style="fill:none;stroke:#000000;stroke-width:0.264583px;stroke-linecap:butt;stroke-linejoin:miter;stroke-opacity:1" />
    <path
       id="path183"
       d="m 109.07448,168.87031 -5.65547,5.52318 -2.38125,2.77812"
       style="fill:none;stroke:#000000;stroke-width:0.264583px;stroke-linecap:butt;stroke-linejoin:miter;stroke-opacity:1" />
    <path
       id="path185"
       d="m 110.7612,170.92083 -6.71381,7.50755 -4.233329,6.58151 -2.182812,3.175"
       style="fill:none;stroke:#000000;stroke-width:0.264583px;stroke-linecap:butt;stroke-linejoin:miter;stroke-opacity:1" />
    <path
       id="path187"
       d="m 112.31562,173.30208 -4.66328,4.3987 -5.42396,7.34219 -5.754683,7.20989"
       style="fill:none;stroke:#000000;stroke-width:0.264583px;stroke-linecap:butt;stroke-linejoin:miter;stroke-opacity:1" />
    <path
       id="path189"
       d="m 113.90312,175.68333 -5.1263,4.29948 -6.15156,8.13594 -6.581511,8.56588"
       style="fill:none;stroke:#000000;stroke-width:0.264583px;stroke-linecap:butt;stroke-linejoin:miter;stroke-opacity:1" />
    <path
       id="path191"
       d="m 111.62109,180.41276 c 0,0.19844 -1.2237,2.14974 -1.2237,2.14974 l -7.37526,8.83047 -6.184631,8.33437"
       style="fill:none;stroke:#000000;stroke-width:0.264583px;stroke-linecap:butt;stroke-linejoin:miter;stroke-opacity:1" />
    <path
       id="path193"
       d="m 115.12682,179.35442 -2.48047,3.80339 -2.34817,3.5388 -13.196098,16.66875"
       style="fill:none;stroke:#000000;stroke-width:0.264583px;stroke-linecap:butt;stroke-linejoin:miter;stroke-opacity:1" />
    <path
       id="path195"
       d="m 116.05286,182.29791 -1.35599,3.37344 -16.007288,19.81068 -2.315104,2.3151"
       style="fill:none;stroke:#000000;stroke-width:0.264583px;stroke-linecap:butt;stroke-linejoin:miter;stroke-opacity:1" />
    <path
       id="path197"
       d="m 117.24349,186.29974 -3.34037,5.32474 -10.74869,12.83229 -4.134119,4.86172"
       style="fill:none;stroke:#000000;stroke-width:0.264583px;stroke-linecap:butt;stroke-linejoin:miter;stroke-opacity:1" />
    <path
       id="path199"
       d="m 118.23568,189.14401 c -0.0662,0.23151 -2.71198,4.79557 -2.71198,4.79557 l -12.86537,15.57734"
       style="fill:none;stroke:#000000;stroke-width:0.264583px;stroke-linecap:butt;stroke-linejoin:miter;stroke-opacity:1" />
    <path
       id="path201"
       d="m 119.16172,192.68281 c -0.16537,0.0992 -2.97657,4.3987 -2.97657,4.3987 l -9.525,12.3362"
       style="fill:none;stroke:#000000;stroke-width:0.264583px;stroke-linecap:butt;stroke-linejoin:miter;stroke-opacity:1" />
    <path
       id="path203"
       d="m 119.92239,196.71771 c -0.19843,0.42994 -1.62057,2.71197 -1.78593,2.84427 -0.16537,0.13229 -8.00365,9.75651 -8.00365,9.75651"
       style="fill:none;stroke:#000000;stroke-width:0.264583px;stroke-linecap:butt;stroke-linejoin:miter;stroke-opacity:1" />
    <path
       id="path205"
       d="m 120.08776,200.88489 c -0.0331,0.13229 -1.9513,2.91042 -1.9513,2.91042 l -4.36563,5.45703"
       style="fill:none;stroke:#000000;stroke-width:0.264583px;stroke-linecap:butt;stroke-linejoin:miter;stroke-opacity:1" />
    <path
       id="path207"
       d="m 120.94765,204.88672 -3.60494,4.36562"
       style="fill:none;stroke:#000000;stroke-width:0.264583px;stroke-linecap:butt;stroke-linejoin:miter;stroke-opacity:1" />
    <path
       id="path209"
       d="m 121.34453,208.55781 c -0.26458,0.16536 -0.89297,0.89297 -0.89297,0.89297"
       style="fill:none;stroke:#000000;stroke-width:0.264583px;stroke-linecap:butt;stroke-linejoin:miter;stroke-opacity:1" />
    <path
       id="path211"
       d="m 101.68269,167.63144 1.57095,-2.03535"
       style="fill:none;stroke:#000000;stroke-width:0.264583px;stroke-linecap:butt;stroke-linejoin:miter;stroke-opacity:1" />
    <path
       id="path213"
       d="m 106.99088,163.77708 3.04064,0.95449"
       style="fill:none;stroke:#000000;stroke-width:0.264583px;stroke-linecap:butt;stroke-linejoin:miter;stroke-opacity:1" />
  </g>
  <g
     transform="translate(-8.9379507,-46.55805)"
     sodipodi:insensitive="true"
     style="display:inline"
     id="layer1"
     inkscape:groupmode="layer"
     inkscape:label="Face Shape">
    <path
       sodipodi:nodetypes="cccscccccccc"
       id="path64"
       d="m 134.83747,105.7051 c -0.38338,6.4662 -2.53906,18.64205 -2.53906,18.64205 -10.58319,4.56742 -13.08906,7.31093 -18.70886,10.75759 0,0 -22.049737,-0.33408 -22.383824,-0.33408 -0.334087,0 -10.958052,-9.08717 -10.958052,-9.08717 l -7.750815,-9.02034 0.801809,-39.021354 7.283093,-14.365735 15.568451,-8.953529 28.731478,8.352171 10.08942,19.577494 z"
       style="fill:#ffffff;stroke:#000000;stroke-width:0.264583px;stroke-linecap:butt;stroke-linejoin:miter;stroke-opacity:1" />
  </g>
  <g
     transform="translate(-8.9379507,-46.55805)"
     sodipodi:insensitive="true"
     style="display:inline"
     inkscape:label="RightEar"
     id="layer4"
     inkscape:groupmode="layer">
    <path
       sodipodi:nodetypes="ccccccccscc"
       id="path67"
       d="m 134.89025,99.171502 c 0.22545,-1.621241 0.53069,-3.192958 3.26005,-3.260045 2.62113,-0.206434 2.23765,1.055815 2.36235,2.126118 l -0.0473,10.394345 -0.89769,3.73252 0.61421,4.29947 -3.07106,3.2128 c 0.002,0.003 -3.10607,-0.82598 -3.63802,-2.03162 0.12619,0.36256 -0.21789,-0.88953 0.17644,-2.27612 1.00443,-3.53192 1.70217,-14.01853 1.24097,-16.197468 z"
       style="fill:#ffffff;stroke:#000000;stroke-width:0.264583px;stroke-linecap:butt;stroke-linejoin:miter;stroke-opacity:1" />
    <path
       sodipodi:nodetypes="ccccccc"
       id="path69"
       d="m 138.95349,103.14025 c 0,0 0.0945,-2.50409 -0.33072,-2.55133 -0.42523,-0.0473 -1.55915,-0.944949 -1.55915,-0.944949 l 0.42522,-1.370163 1.84263,0.377976 0.28348,2.078866 z"
       style="fill:#000000;stroke:#000000;stroke-width:0.264583px;stroke-linecap:butt;stroke-linejoin:miter;stroke-opacity:1" />
    <path
       sodipodi:nodetypes="cccccc"
       id="path71"
       d="m 135.07924,104.27418 c 0.8701,-0.007 1.64175,1.02065 2.03162,0.75595 0.36622,0.75595 0.53151,1.32292 0.14179,2.07887 -0.36962,0.86898 -0.95345,1.66656 -1.70089,2.4096 -0.0608,-1.09779 -0.30255,-1.92427 -0.61421,-2.64583 z"
       style="fill:#000000;stroke:#000000;stroke-width:0.264583px;stroke-linecap:butt;stroke-linejoin:miter;stroke-opacity:1" />
    <path
       id="path73"
       d="m 138.1503,109.94382 -1.6064,1.6064 0.37797,1.74814"
       style="fill:none;stroke:#000000;stroke-width:0.264583px;stroke-linecap:butt;stroke-linejoin:miter;stroke-opacity:1" />
  </g>
  <g
     transform="translate(-8.9379507,-46.55805)"
     style="display:inline"
     sodipodi:insensitive="true"
     inkscape:label="Eye Brows"
     id="layer11"
     inkscape:groupmode="layer">
    <path
       id="path218"
       d="m 98.642499,88.165534 c -0.327406,0 -5.378799,-0.467722 -5.378799,-0.467722 l -9.775383,-0.514493 -3.274052,1.028988 2.853103,-3.975634 6.173925,-0.467723 6.45456,1.870887 z"
       style="fill:#000000;stroke:#000000;stroke-width:0.264583px;stroke-linecap:butt;stroke-linejoin:miter;stroke-opacity:1" />
    <path
       id="path220"
       d="m 107.90339,87.089775 c 0,0 1.49671,2.946646 1.82411,2.80633 0.32741,-0.140317 6.92228,-0.841899 7.20292,-0.795129 0.28063,0.04677 3.60145,1.075762 3.78854,0.982216 0.18709,-0.09354 4.16273,-1.169302 4.16273,-1.169302 l -4.11595,-2.432154 -10.71083,-0.514493 z"
       style="fill:#000000;stroke:#000000;stroke-width:0.264583px;stroke-linecap:butt;stroke-linejoin:miter;stroke-opacity:1" />
  </g>
  <g
     transform="translate(-8.9379507,-46.55805)"
     sodipodi:insensitive="true"
     style="display:inline"
     inkscape:label="Hair"
     id="layer3"
     inkscape:groupmode="layer">
    <path
       id="path44"
       d="m 72.897764,97.887463 c 0.334086,-0.868627 2.00452,-13.697563 5.612659,-16.83798 3.608138,-3.140416 -3.407685,0.668174 1.804069,-8.619442 5.211755,-9.287616 3.140416,-5.612659 5.078121,-7.216277 1.937703,-1.603616 15.835717,-4.476764 16.704347,-2.605879 0.86862,1.870887 22.18337,5.011304 22.45064,6.080382 0.26727,1.069078 3.34087,3.34087 2.93996,8.953529 -0.4009,5.612661 -2.47224,2.806332 -2.20497,3.674956 0.26727,0.868627 7.08264,9.621703 7.55036,14.031651 0.46772,4.409948 1.93771,7.750817 1.93771,7.750817 0,0 0.20045,-5.144939 0.66817,-5.87993 0.46772,-0.734991 3.54132,-1.469983 3.54132,-1.469983 0,0 0.60136,-10.490329 -1.40316,-19.577491 -2.00452,-9.087165 -7.14946,-7.283096 -6.5481,-9.020347 0.60135,-1.737252 -3.34087,-7.015827 -6.74856,-12.227581 -3.40769,-5.211757 -6.5481,-4.543584 -16.9048,-7.684 -10.356694,-3.140416 -27.061038,8.084904 -24.521977,11.826676 2.53906,3.741775 -0.734992,-0.935442 -1.670434,0.06682 -0.935445,1.00226 -9.287618,9.421252 -9.955792,16.503893 -0.668173,7.082642 -0.267269,11.292139 -0.267269,11.292139 z"
       style="fill:#000000;stroke:#000000;stroke-width:0.264583px;stroke-linecap:butt;stroke-linejoin:miter;stroke-opacity:1" />
  </g>
  <g
     transform="translate(-8.9379507,-46.55805)"
     style="display:inline"
     sodipodi:insensitive="true"
     inkscape:label="LeftEar"
     id="layer5"
     inkscape:groupmode="layer">
    <path
       sodipodi:nodetypes="cccsccc"
       id="path76"
       d="m 72.760416,96.100446 c -0.283483,-0.495443 -1.795386,-0.937659 -1.795386,-0.425224 -0.813422,0.763492 -1.010077,1.615093 -0.944941,2.504093 0.561233,4.513605 0.502007,8.219025 0.272684,12.100185 -0.06496,1.09948 -0.447767,2.25652 -0.461673,3.39684 0.669685,1.76176 1.770315,2.01521 2.665759,2.98681 z"
       style="fill:#ffffff;stroke:#000000;stroke-width:0.264583px;stroke-linecap:butt;stroke-linejoin:miter;stroke-opacity:1" />
    <path
       id="path78"
       d="m 71.862722,100.7779 c -0.04725,0.42522 -0.992188,4.91369 -0.992188,4.91369"
       style="fill:none;stroke:#000000;stroke-width:0.264583px;stroke-linecap:butt;stroke-linejoin:miter;stroke-opacity:1" />
  </g>
</svg>
